<svg width="20" height="15" viewBox="0 0 20 15" fill="none" xmlns="http://www.w3.org/2000/svg">
<path d="M19.5172 5.51021L17.6722 13.6627C17.6356 13.8333 17.5407 13.9858 17.4038 14.0939C17.2669 14.2021 17.0966 14.2591 16.9222 14.2552H2.55222C2.37781 14.2591 2.2075 14.2021 2.07061 14.0939C1.93372 13.9858 1.83881 13.8333 1.80222 13.6627L0.0172219 5.51021C-0.0128184 5.37246 -0.0034216 5.22903 0.0443345 5.09637C0.0920907 4.96372 0.176272 4.84721 0.287222 4.76021C0.398477 4.67291 0.53215 4.61883 0.672817 4.60424C0.813483 4.58964 0.95541 4.61511 1.08222 4.67771L5.46222 6.80021L9.09222 0.380211C9.15764 0.264788 9.2525 0.168782 9.36712 0.101987C9.48175 0.0351926 9.61205 0 9.74472 0C9.87739 0 10.0077 0.0351926 10.1223 0.101987C10.2369 0.168782 10.3318 0.264788 10.3972 0.380211L14.0272 6.80771L18.4372 4.67021C18.5649 4.60251 18.7095 4.57316 18.8535 4.58569C18.9975 4.59822 19.1348 4.6521 19.2489 4.74085C19.3631 4.8296 19.4491 4.94943 19.4967 5.08592C19.5443 5.22242 19.5514 5.36976 19.5172 5.51021Z" fill="#DBC08D"/>
</svg>
