<svg width="17" height="12" viewBox="0 0 17 12" fill="none" xmlns="http://www.w3.org/2000/svg">
<path d="M16.8265 5.3971C16.8018 5.34156 16.2064 4.02065 14.8821 2.69632C13.1184 0.932396 10.8898 0 8.43748 0C5.98513 0 3.75655 0.932396 1.99283 2.69632C0.668568 4.02066 0.0731795 5.34155 0.0484597 5.3971C0.0165087 5.46902 0 5.54685 0 5.62555C0 5.70425 0.0165087 5.78207 0.0484597 5.854C0.0731795 5.90961 0.668638 7.23017 1.9929 8.5543C3.75662 10.3178 5.98513 11.25 8.43748 11.25C10.8898 11.25 13.1183 10.3178 14.8821 8.5543C16.2063 7.23018 16.8018 5.90962 16.8265 5.854C16.8585 5.78208 16.875 5.70425 16.875 5.62555C16.875 5.54685 16.8585 5.46903 16.8265 5.3971ZM8.43748 3.09437C8.93812 3.09437 9.42751 3.24282 9.84377 3.52096C10.26 3.7991 10.5845 4.19443 10.7761 4.65695C10.9676 5.11948 11.0178 5.62843 10.9201 6.11944C10.8224 6.61046 10.5813 7.06148 10.2273 7.41548C9.87335 7.76948 9.42232 8.01056 8.9313 8.10823C8.44029 8.2059 7.93134 8.15577 7.46882 7.96419C7.00629 7.7726 6.61096 7.44817 6.33283 7.03191C6.05469 6.61564 5.90623 6.12625 5.90623 5.62562C5.90699 4.95452 6.17392 4.31113 6.64845 3.83659C7.12299 3.36205 7.76639 3.09512 8.43748 3.09437Z" fill="#19242F" fill-opacity="0.25"/>
</svg>
