<svg width="13" height="16" viewBox="0 0 13 16" fill="none" xmlns="http://www.w3.org/2000/svg">
<path d="M6.1875 0C4.54707 0.00194641 2.97439 0.654467 1.81443 1.81443C0.654467 2.97439 0.00194641 4.54707 0 6.1875C0 11.4818 5.625 15.4808 5.8645 15.6484C5.95922 15.7145 6.07197 15.75 6.1875 15.75C6.30303 15.75 6.41578 15.7145 6.5105 15.6484C6.75 15.4808 12.375 11.4818 12.375 6.1875C12.3731 4.54707 11.7205 2.97439 10.5606 1.81443C9.40061 0.654467 7.82793 0.00194622 6.1875 0ZM6.18791 3.9377C6.63292 3.9377 7.06793 4.06966 7.43794 4.3169C7.80796 4.56413 8.09634 4.91553 8.26664 5.32667C8.43694 5.7378 8.4815 6.1902 8.39468 6.62666C8.30786 7.06311 8.09357 7.46403 7.7789 7.77869C7.46423 8.09336 7.06332 8.30765 6.62687 8.39447C6.19041 8.48129 5.73801 8.43673 5.32687 8.26643C4.91574 8.09614 4.56434 7.80775 4.31711 7.43774C4.06987 7.06773 3.93791 6.63271 3.93791 6.1877C3.9379 5.89223 3.9961 5.59964 4.10917 5.32666C4.22224 5.05367 4.38797 4.80563 4.5969 4.59669C4.80584 4.38776 5.05388 4.22203 5.32686 4.10896C5.59985 3.99589 5.89244 3.9377 6.18791 3.9377Z" fill="#19242F" fill-opacity="0.25"/>
</svg>
