<svg width="32" height="32" viewBox="0 0 32 32" fill="none" xmlns="http://www.w3.org/2000/svg">
<path d="M0 16C0 7.16344 7.16344 0 16 0C24.8366 0 32 7.16344 32 16C32 24.8366 24.8366 32 16 32C7.16344 32 0 24.8366 0 16Z" fill="white"/>
<mask id="mask0_89_370" style="mask-type:luminance" maskUnits="userSpaceOnUse" x="0" y="0" width="32" height="32">
<path fill-rule="evenodd" clip-rule="evenodd" d="M0 16C0 7.16344 7.16344 0 16 0C24.8366 0 32 7.16344 32 16C32 24.8366 24.8366 32 16 32C7.16344 32 0 24.8366 0 16Z" fill="white"/>
</mask>
<g mask="url(#mask0_89_370)">
<path fill-rule="evenodd" clip-rule="evenodd" d="M16.0007 7.46655C13.6832 7.46655 13.3923 7.47669 12.4821 7.51811C11.5736 7.55971 10.9535 7.70353 10.4109 7.91456C9.84969 8.13252 9.37359 8.42407 8.89928 8.89857C8.42461 9.37288 8.13305 9.84898 7.91438 10.4101C7.70282 10.9528 7.55882 11.5731 7.51793 12.4812C7.47722 13.3914 7.46655 13.6824 7.46655 16C7.46655 18.3175 7.47686 18.6075 7.51811 19.5177C7.55989 20.4262 7.70371 21.0462 7.91456 21.5888C8.13269 22.1501 8.42425 22.6262 8.89875 23.1005C9.37288 23.5752 9.84898 23.8674 10.4099 24.0854C10.9528 24.2964 11.5731 24.4402 12.4814 24.4818C13.3916 24.5233 13.6823 24.5334 15.9996 24.5334C18.3173 24.5334 18.6073 24.5233 19.5175 24.4818C20.426 24.4402 21.0468 24.2964 21.5897 24.0854C22.1508 23.8674 22.6262 23.5752 23.1003 23.1005C23.575 22.6262 23.8665 22.1501 24.0852 21.589C24.295 21.0463 24.439 20.426 24.4817 19.5179C24.5226 18.6076 24.5332 18.3175 24.5332 16C24.5332 13.6824 24.5226 13.3916 24.4817 12.4814C24.439 11.5729 24.295 10.9528 24.0852 10.4102C23.8665 9.84898 23.575 9.37288 23.1003 8.89857C22.6256 8.4239 22.151 8.13234 21.5892 7.91456C21.0452 7.70353 20.4247 7.55971 19.5163 7.51811C18.606 7.47669 18.3163 7.46655 15.998 7.46655H16.0007ZM15.7161 9.00426H15.7163L16.0007 9.00435C18.2791 9.00435 18.5492 9.01252 19.4489 9.05341C20.2809 9.09146 20.7325 9.23048 21.0333 9.34728C21.4315 9.50195 21.7154 9.68684 22.0139 9.98551C22.3126 10.2842 22.4975 10.5686 22.6525 10.9669C22.7693 11.2673 22.9085 11.7189 22.9464 12.5509C22.9872 13.4504 22.9961 13.7207 22.9961 15.998C22.9961 18.2754 22.9872 18.5456 22.9464 19.4452C22.9083 20.2772 22.7693 20.7287 22.6525 21.0292C22.4978 21.4274 22.3126 21.711 22.0139 22.0095C21.7152 22.3081 21.4317 22.493 21.0333 22.6477C20.7328 22.765 20.2809 22.9037 19.4489 22.9417C18.5493 22.9826 18.2791 22.9915 16.0007 22.9915C13.7221 22.9915 13.452 22.9826 12.5525 22.9417C11.7205 22.9033 11.2689 22.7643 10.9679 22.6475C10.5697 22.4928 10.2852 22.308 9.98658 22.0093C9.68791 21.7106 9.50302 21.4269 9.34799 21.0285C9.23119 20.728 9.09199 20.2765 9.05412 19.4445C9.01324 18.5449 9.00506 18.2747 9.00506 15.9959C9.00506 13.7171 9.01324 13.4483 9.05412 12.5487C9.09217 11.7167 9.23119 11.2652 9.34799 10.9644C9.50266 10.5661 9.68791 10.2817 9.98658 9.98302C10.2852 9.68435 10.5697 9.49946 10.9679 9.34444C11.2687 9.2271 11.7205 9.08844 12.5525 9.05021C13.3397 9.01466 13.6448 9.00399 15.2352 9.00221V9.00435C15.3838 9.00411 15.5436 9.00419 15.7161 9.00426ZM19.5317 11.4449C19.5317 10.8794 19.9904 10.4212 20.5558 10.4212V10.4209C21.1211 10.4209 21.5798 10.8796 21.5798 11.4449C21.5798 12.0102 21.1211 12.4689 20.5558 12.4689C19.9904 12.4689 19.5317 12.0102 19.5317 11.4449ZM16.0005 11.6177C13.5805 11.6178 11.6184 13.5799 11.6184 16C11.6184 18.4201 13.5806 20.3814 16.0007 20.3814C18.4208 20.3814 20.3822 18.4201 20.3822 16C20.3822 13.5799 18.4206 11.6177 16.0005 11.6177ZM18.8452 16C18.8452 14.4289 17.5715 13.1555 16.0007 13.1555C14.4296 13.1555 13.1562 14.4289 13.1562 16C13.1562 17.5708 14.4296 18.8444 16.0007 18.8444C17.5715 18.8444 18.8452 17.5708 18.8452 16Z" fill="black"/>
</g>
</svg>
