<svg width="15" height="12" viewBox="0 0 15 12" fill="none" xmlns="http://www.w3.org/2000/svg">
<path d="M14.6243 0.549093C14.6241 0.538691 14.6235 0.528305 14.6227 0.517937C14.6221 0.509474 14.6212 0.501068 14.6202 0.49272C14.619 0.483003 14.6175 0.473339 14.6158 0.463674C14.6143 0.454956 14.6126 0.446302 14.6106 0.437737C14.6086 0.428569 14.6061 0.419488 14.6036 0.410425C14.6012 0.401756 14.5987 0.393173 14.5959 0.384691C14.5929 0.375832 14.5896 0.367113 14.5862 0.358394C14.583 0.350052 14.5796 0.341794 14.576 0.333675C14.5722 0.325092 14.568 0.316663 14.5638 0.308252C14.5597 0.30027 14.5556 0.292373 14.5512 0.284614C14.5466 0.276598 14.5417 0.268718 14.5368 0.260873C14.5317 0.25296 14.5265 0.2452 14.5211 0.237561C14.516 0.230369 14.5107 0.223314 14.5052 0.21631C14.4991 0.208431 14.4927 0.200771 14.4861 0.193238C14.483 0.189685 14.4804 0.185908 14.4772 0.18241C14.4745 0.179457 14.4715 0.176951 14.4687 0.174068C14.4619 0.166961 14.4549 0.160146 14.4477 0.153399C14.4411 0.147151 14.4345 0.140954 14.4276 0.135066C14.4208 0.1293 14.4139 0.123839 14.4068 0.11838C14.3991 0.112404 14.3915 0.106484 14.3835 0.100974C14.3767 0.0961848 14.3696 0.0917387 14.3625 0.0872584C14.3541 0.0819709 14.3458 0.076701 14.3372 0.0718945C14.3297 0.067706 14.322 0.0639127 14.3144 0.0600673C14.3059 0.0558274 14.2975 0.0515525 14.2888 0.0477626C14.2804 0.0440544 14.2718 0.0408276 14.2632 0.0375313C14.2549 0.0343729 14.2467 0.0311632 14.2383 0.0284161C14.2292 0.0254124 14.2199 0.0229056 14.2106 0.0203652C14.2023 0.018099 14.194 0.0158161 14.1856 0.0139451C14.1763 0.011868 14.1669 0.0102375 14.1575 0.00862384C14.1486 0.00711282 14.1397 0.00563687 14.1308 0.00455546C14.1219 0.00347406 14.1129 0.00275277 14.1039 0.00210097C14.094 0.00137957 14.0842 0.000812731 14.0744 0.000606716C14.0704 0.000514606 14.0665 0 14.0625 0H0.5625C0.558724 0 0.555084 0.000497845 0.551308 0.000566751C0.540939 0.000772766 0.530571 0.0013563 0.520237 0.00212833C0.511688 0.00278083 0.503208 0.00345026 0.494797 0.00446346C0.485355 0.0055962 0.475983 0.00714091 0.466576 0.00877216C0.457615 0.010319 0.448654 0.0118448 0.439865 0.0138185C0.431006 0.0157928 0.422287 0.0181961 0.413498 0.0205994C0.404639 0.0230371 0.395783 0.0254229 0.387096 0.0282726C0.378307 0.0311554 0.369659 0.0345038 0.36097 0.0378352C0.352764 0.0409937 0.344524 0.0440831 0.33649 0.0476022C0.32753 0.0515334 0.318772 0.0559623 0.309982 0.0603913C0.3026 0.0640989 0.295217 0.0677209 0.288045 0.0717378C0.279256 0.0766646 0.270673 0.0820737 0.26209 0.0875138C0.255223 0.0918731 0.248288 0.0961996 0.241629 0.100852C0.233561 0.106448 0.225768 0.112453 0.217974 0.118533C0.211039 0.123906 0.204173 0.129296 0.197513 0.134995C0.190579 0.140917 0.183883 0.147149 0.177154 0.153483C0.170048 0.160178 0.163079 0.166976 0.156315 0.174031C0.153568 0.176932 0.150549 0.179456 0.147835 0.182408C0.144642 0.18591 0.141964 0.189686 0.138874 0.193236C0.132317 0.200772 0.125931 0.208429 0.119749 0.216308C0.114291 0.223312 0.108969 0.23037 0.103888 0.237559C0.0984635 0.245198 0.0932794 0.252958 0.0882323 0.260871C0.0832542 0.268716 0.0784132 0.276595 0.0738126 0.284612C0.0694181 0.292371 0.0652641 0.300268 0.0612134 0.308249C0.056956 0.316661 0.0528019 0.32509 0.0489565 0.333673C0.0453516 0.341792 0.0420216 0.350049 0.0387943 0.358392C0.0353954 0.367111 0.032099 0.375829 0.0291466 0.384689C0.0263341 0.393169 0.0238254 0.401752 0.0213877 0.410423C0.0188473 0.419487 0.016444 0.428567 0.0143494 0.437735C0.0124271 0.4463 0.0107445 0.454952 0.00919971 0.463672C0.00748338 0.473337 0.00597238 0.483001 0.00477004 0.492718C0.00373879 0.501077 0.00290343 0.509483 0.00226405 0.517935C0.00143999 0.52832 0.000913652 0.538706 0.000684902 0.549091C0.000583652 0.553591 0 0.557968 0 0.5625V10.125C0.000341113 10.4233 0.118977 10.7092 0.329882 10.9201C0.540786 11.131 0.826736 11.2497 1.125 11.25H13.5C13.7983 11.2497 14.0842 11.131 14.2951 10.9201C14.506 10.7092 14.6247 10.4233 14.625 10.125V0.5625C14.625 0.557968 14.6244 0.553591 14.6243 0.549093ZM1.125 1.84122L5.25277 5.62502L1.125 9.4088V1.84122ZM2.00864 10.125L6.08526 6.38812L6.93237 7.16465C7.03613 7.25975 7.17176 7.3125 7.3125 7.3125C7.45324 7.3125 7.58887 7.25975 7.69263 7.16465L8.53978 6.3881L12.6164 10.125H2.00864ZM9.37223 5.625L13.5001 1.84112L13.5007 9.40933L9.37223 5.625Z" fill="#19242F" fill-opacity="0.25"/>
</svg>
