<svg width="15" height="15" viewBox="0 0 15 15" fill="none" xmlns="http://www.w3.org/2000/svg">
<path d="M13.3574 9.42881L10.0641 8.01741C9.89215 7.94339 9.70441 7.91358 9.518 7.93071C9.33158 7.94784 9.15242 8.01135 8.99684 8.11546L7.23601 9.28922C6.15984 8.7658 5.28882 7.89862 4.76065 6.82478L4.76079 6.82464L5.93042 5.03744C6.03223 4.88228 6.094 4.70431 6.1102 4.51944C6.1264 4.33458 6.09653 4.14858 6.02325 3.97808L4.61055 0.681976C4.51439 0.458237 4.34834 0.271666 4.13726 0.150198C3.92619 0.02873 3.68145 -0.0210991 3.43968 0.00817152C2.48967 0.130319 1.61661 0.594148 0.983613 1.31301C0.350614 2.03187 0.000970967 2.95659 0 3.91443C0 9.49741 4.54202 14.0394 10.125 14.0394C11.0828 14.0385 12.0076 13.6888 12.7264 13.0558C13.4453 12.4228 13.9091 11.5497 14.0313 10.5997C14.0604 10.3579 14.0106 10.1132 13.8891 9.90214C13.7676 9.69108 13.5811 9.52502 13.3574 9.42881Z" fill="#19242F" fill-opacity="0.25"/>
</svg>
