<svg width="18" height="18" viewBox="0 0 18 18" fill="none" xmlns="http://www.w3.org/2000/svg">
<path d="M16.3078 14.9053C15.2582 13.0975 13.5774 11.7417 11.5884 11.0984C12.5413 10.5314 13.2816 9.66738 13.6958 8.63891C14.11 7.61044 14.1751 6.47444 13.8811 5.4054C13.5871 4.33635 12.9503 3.39338 12.0684 2.72132C11.1866 2.04926 10.1085 1.68527 8.99978 1.68527C7.89104 1.68527 6.81297 2.04926 5.93113 2.72132C5.0493 3.39338 4.41248 4.33635 4.11849 5.4054C3.8245 6.47444 3.88959 7.61044 4.30376 8.63891C4.71794 9.66738 5.4583 10.5314 6.41112 11.0984C4.42226 11.7416 2.74143 13.0975 1.69184 14.9051C1.64237 14.9907 1.61628 15.0877 1.61621 15.1865C1.61614 15.2852 1.64209 15.3823 1.69144 15.4679C1.74079 15.5534 1.81181 15.6245 1.89734 15.6739C1.98288 15.7233 2.07992 15.7493 2.17871 15.7493L15.8209 15.7495C15.9197 15.7495 16.0168 15.7235 16.1023 15.6741C16.1879 15.6247 16.2589 15.5536 16.3082 15.468C16.3576 15.3824 16.3835 15.2854 16.3835 15.1866C16.3834 15.0878 16.3573 14.9908 16.3078 14.9053L16.3078 14.9053Z" fill="#19242F" fill-opacity="0.25"/>
</svg>
